<svg xmlns="http://www.w3.org/2000/svg" width="100%" height="100%" viewBox="0 0 137 137" fill-rule="evenodd" stroke-linejoin="round" stroke-miterlimit="2" fill="#fff" stroke="#000"><path d="M119.55 46.25l-5.06-18.725c-.578-2.137-3.003-3.463-5.4-2.946L9.18 46.25h110.37zM94.423 23.7l-7.045-13.645C86.573 8.5 84.475 7.88 82.715 8.68L9.02 42.156 94.423 23.7zm-27-12.652L60.23 2.364c-.822-1-2.425-1.105-3.563-.254L9.044 37.73l58.39-26.682z" fill-rule="nonzero" stroke-opacity=".5" stroke-width=".06"/><path d="M129.3 134.72H8.613c-3.287-.01-5.99-2.713-6-6V56.465c.01-3.287 2.713-5.99 6-6H129.3c3.287.01 5.99 2.713 6 6v72.256c-.01 3.287-2.713 5.99-6 6h0zM80.856 72.357c-3.273 0-6.262.53-8.973 1.597s-5.04 2.555-6.984 4.473-3.46 4.198-4.544 6.84-1.626 5.542-1.626 8.697c0 3.088.473 5.946 1.423 8.6s2.308 4.928 4.08 6.854 3.93 3.437 6.477 4.53 5.426 1.64 8.64 1.64h.164c3.435-.018 6.415-.586 8.94-1.7 2.565-1.132 4.7-2.81 6.403-5.038l-3.892-4.095c-.213-.213-.436-.362-.668-.45a1.97 1.97 0 0 0-.696-.13l-.01-.013c-.292 0-.58.063-.845.186-.272.126-.523.287-.755.48-.582.503-1.158.935-1.728 1.263a10.23 10.23 0 0 1-1.8.828c-.63.214-1.312.363-2.047.45-.708.08-1.42.124-2.133.13h-.306c-1.548 0-2.998-.3-4.355-.9a10.04 10.04 0 0 1-3.549-2.608c-1.006-1.15-1.81-2.57-2.4-4.254s-.886-3.6-.886-5.778c0-2.07.294-3.95.886-5.604s1.414-3.085 2.47-4.255a10.7 10.7 0 0 1 3.79-2.7c1.472-.63 3.1-.944 4.88-.944l.19.001c.946.008 1.78.075 2.495.23.764.166 1.424.343 2.004.566a8.5 8.5 0 0 1 1.48.727l1.146.726.987.566c.306.154.644.234.987.232h.05c.5-.007.88-.12 1.17-.334a4.23 4.23 0 0 0 .755-.74l3.3-4.443c-.794-.833-1.704-1.594-2.73-2.28s-2.148-1.276-3.368-1.77c-1.273-.51-2.59-.898-3.936-1.162-1.36-.27-2.805-.41-4.337-.42h-.15zm-38.446 0c-3.273 0-6.262.53-8.973 1.597s-5.04 2.555-6.984 4.473-3.46 4.198-4.545 6.84-1.626 5.542-1.626 8.697c0 3.088.475 5.946 1.423 8.6s2.308 4.928 4.08 6.854 3.93 3.437 6.476 4.53 5.426 1.64 8.64 1.64h.164c3.435-.018 6.415-.586 8.94-1.7 2.565-1.132 4.7-2.81 6.403-5.038l-3.892-4.095c-.212-.213-.435-.363-.667-.45a1.97 1.97 0 0 0-.653-.129l-.044-.001-.008.008a1.98 1.98 0 0 0-.843.186c-.27.127-.525.288-.755.48-.58.503-1.158.923-1.728 1.263a9.46 9.46 0 0 1-1.8.828c-.63.214-1.312.363-2.047.45-.708.08-1.42.124-2.133.13h-.447c-1.45-.01-2.886-.315-4.215-.9a10.23 10.23 0 0 1-3.557-2.628c-1.006-1.15-1.81-2.57-2.4-4.254s-.886-3.6-.886-5.778c0-2.07.296-3.95.886-5.604s1.402-3.085 2.468-4.255 2.33-2.07 3.8-2.7 3.098-.944 4.878-.944l.19.001c.946.008 1.78.075 2.495.23.764.166 1.424.343 2.004.566a8.5 8.5 0 0 1 1.48.727l1.147.726.987.566c.31.155.64.232.987.232h.05c.5-.007.89-.12 1.17-.334.29-.222.542-.47.755-.74L56.93 78c-.794-.833-1.704-1.592-2.73-2.28-1.06-.704-2.188-1.298-3.37-1.77-1.22-.494-2.53-.882-3.935-1.162-1.36-.27-2.806-.41-4.338-.42h-.15zm80.203 20.683c-.001 4.902-4.035 8.936-8.937 8.938s-8.935-4.036-8.936-8.938 4.034-8.935 8.936-8.937 8.935 4.035 8.937 8.937z" stroke-opacity=".5" stroke-width=".09"/></svg>