<?xml version="1.0" encoding="utf-8"?>
<!-- Generator: Adobe Illustrator 16.0.4, SVG Export Plug-In . SVG Version: 6.00 Build 0)  -->
<!DOCTYPE svg PUBLIC "-//W3C//DTD SVG 1.1//EN" "http://www.w3.org/Graphics/SVG/1.1/DTD/svg11.dtd">
<svg version="1.1" id="Layer_1" xmlns="http://www.w3.org/2000/svg" xmlns:xlink="http://www.w3.org/1999/xlink" x="0px" y="0px"
	 width="136.8px" height="136.8px" viewBox="0 0 136.8 136.8" enable-background="new 0 0 136.8 136.8" xml:space="preserve">
<g>
	<path fill="#3AAE74" d="M129.291,134.721H8.613c-3.3,0-6-2.7-6-6V56.465c0-3.3,2.7-6,6-6h120.678c3.3,0,6,2.7,6,6v72.256
		C135.291,132.021,132.59,134.721,129.291,134.721"/>
	<rect x="-23.1" y="-13.951" fill="none" width="179" height="176.702"/>
	<g>
		<path fill="#FFFFFF" d="M51.152,104.175c0.232,0,0.465,0.043,0.697,0.13c0.232,0.088,0.455,0.237,0.667,0.45l3.892,4.095
			c-1.704,2.227-3.838,3.906-6.403,5.038c-2.565,1.133-5.6,1.699-9.104,1.699c-3.214,0-6.094-0.547-8.639-1.641
			c-2.546-1.094-4.704-2.604-6.476-4.53c-1.771-1.926-3.132-4.211-4.08-6.854c-0.949-2.643-1.423-5.512-1.423-8.609
			c0-3.155,0.542-6.055,1.626-8.697c1.084-2.643,2.599-4.922,4.545-6.839c1.945-1.916,4.273-3.407,6.984-4.473
			c2.71-1.064,5.701-1.597,8.973-1.597c1.587,0,3.083,0.141,4.487,0.421c1.403,0.281,2.715,0.668,3.935,1.162
			s2.342,1.084,3.369,1.771c1.026,0.688,1.936,1.447,2.729,2.279l-3.311,4.443c-0.213,0.271-0.464,0.518-0.755,0.74
			s-0.697,0.334-1.22,0.334c-0.348,0-0.678-0.077-0.987-0.232s-0.639-0.344-0.987-0.566c-0.348-0.223-0.731-0.465-1.147-0.726
			c-0.417-0.262-0.91-0.504-1.481-0.727c-0.571-0.222-1.239-0.411-2.004-0.566c-0.765-0.154-1.66-0.232-2.686-0.232
			c-1.781,0-3.407,0.315-4.878,0.944s-2.734,1.529-3.79,2.7c-1.055,1.172-1.878,2.59-2.468,4.255
			c-0.591,1.665-0.886,3.533-0.886,5.604c0,2.168,0.295,4.094,0.886,5.778c0.59,1.685,1.394,3.103,2.41,4.254
			c1.017,1.152,2.202,2.028,3.557,2.628c1.355,0.601,2.807,0.9,4.356,0.9c0.89,0,1.704-0.043,2.439-0.131
			c0.735-0.087,1.418-0.236,2.047-0.449c0.628-0.213,1.229-0.489,1.8-0.828c0.571-0.339,1.147-0.76,1.728-1.263
			c0.232-0.193,0.484-0.354,0.755-0.479C50.581,104.238,50.862,104.175,51.152,104.175z"/>
		<path fill="#FFFFFF" d="M89.6,104.175c0.232,0,0.464,0.043,0.696,0.13c0.232,0.088,0.455,0.237,0.668,0.45l3.892,4.095
			c-1.704,2.227-3.838,3.906-6.403,5.038c-2.565,1.133-5.6,1.699-9.104,1.699c-3.214,0-6.094-0.547-8.639-1.641
			c-2.547-1.094-4.705-2.604-6.477-4.53c-1.771-1.926-3.131-4.211-4.08-6.854c-0.949-2.643-1.423-5.512-1.423-8.609
			c0-3.155,0.542-6.055,1.626-8.697c1.084-2.643,2.599-4.922,4.544-6.839c1.945-1.916,4.273-3.407,6.984-4.473
			c2.71-1.064,5.701-1.597,8.973-1.597c1.587,0,3.083,0.141,4.486,0.421c1.403,0.281,2.716,0.668,3.936,1.162
			c1.219,0.494,2.342,1.084,3.368,1.771c1.025,0.688,1.936,1.447,2.729,2.279l-3.311,4.443c-0.213,0.271-0.465,0.518-0.755,0.74
			s-0.697,0.334-1.22,0.334c-0.349,0-0.678-0.077-0.987-0.232s-0.639-0.344-0.987-0.566s-0.73-0.465-1.146-0.726
			c-0.417-0.262-0.91-0.504-1.481-0.727c-0.571-0.222-1.239-0.411-2.004-0.566c-0.765-0.154-1.66-0.232-2.686-0.232
			c-1.781,0-3.408,0.315-4.879,0.944c-1.472,0.629-2.734,1.529-3.789,2.7c-1.056,1.172-1.878,2.59-2.469,4.255
			s-0.886,3.533-0.886,5.604c0,2.168,0.295,4.094,0.886,5.778s1.394,3.103,2.41,4.254c1.017,1.152,2.202,2.028,3.558,2.628
			c1.354,0.601,2.807,0.9,4.355,0.9c0.891,0,1.703-0.043,2.439-0.131c0.735-0.087,1.418-0.236,2.047-0.449s1.229-0.489,1.801-0.828
			c0.57-0.339,1.146-0.76,1.728-1.263c0.232-0.193,0.483-0.354,0.755-0.479S89.309,104.175,89.6,104.175z"/>
	</g>
	<g>
		<defs>
			<rect id="SVGID_1_" x="-23.1" y="-13.951" width="179" height="176.702"/>
		</defs>
		<clipPath id="SVGID_2_">
			<use xlink:href="#SVGID_1_"  overflow="visible"/>
		</clipPath>
		<path clip-path="url(#SVGID_2_)" fill="#FFFFFF" d="M122.613,93.039c0,4.937-4.001,8.938-8.937,8.938s-8.936-4.001-8.936-8.938
			c0-4.936,4-8.937,8.936-8.937S122.613,88.103,122.613,93.039"/>
		<path clip-path="url(#SVGID_2_)" fill="#3AAE74" d="M119.549,46.251l-5.06-18.725c-0.578-2.137-3.003-3.463-5.389-2.946
			L9.181,46.251H119.549z"/>
		<path clip-path="url(#SVGID_2_)" fill="#3AAE74" d="M94.423,23.701l-7.045-13.645C86.573,8.5,84.475,7.88,82.715,8.679
			L9.019,42.156L94.423,23.701z"/>
		<path clip-path="url(#SVGID_2_)" fill="#3AAE74" d="M67.432,11.048l-7.203-8.684c-0.822-0.99-2.425-1.105-3.563-0.254L9.044,37.73
			L67.432,11.048z"/>
	</g>
</g>
</svg>
