<?xml version="1.0" encoding="utf-8"?>
<!-- Generator: Adobe Illustrator 16.0.4, SVG Export Plug-In . SVG Version: 6.00 Build 0)  -->
<!DOCTYPE svg PUBLIC "-//W3C//DTD SVG 1.1//EN" "http://www.w3.org/Graphics/SVG/1.1/DTD/svg11.dtd">
<svg version="1.1" id="Layer_1" xmlns="http://www.w3.org/2000/svg" xmlns:xlink="http://www.w3.org/1999/xlink" x="0px" y="0px"
	 width="852px" height="139px" viewBox="0 0 852 139" enable-background="new 0 0 852 139" xml:space="preserve">
<g>
	<path fill="#3BAD74" d="M131.391,134.97H10.713c-3.3,0-6-2.7-6-6V56.714c0-3.3,2.7-6,6-6h120.678c3.3,0,6,2.7,6,6v72.256
		C137.391,132.27,134.69,134.97,131.391,134.97"/>
	<rect x="-21" y="-13.702" fill="none" width="179" height="176.702"/>
	<g>
		<path fill="#FFFFFF" d="M53.252,104.424c0.232,0,0.465,0.043,0.697,0.13c0.232,0.088,0.455,0.237,0.667,0.45l3.892,4.095
			c-1.704,2.227-3.838,3.906-6.403,5.038c-2.565,1.133-5.6,1.699-9.104,1.699c-3.214,0-6.094-0.547-8.639-1.641
			c-2.546-1.094-4.704-2.604-6.476-4.53c-1.771-1.926-3.132-4.211-4.08-6.854c-0.949-2.643-1.423-5.512-1.423-8.609
			c0-3.155,0.542-6.055,1.626-8.697c1.084-2.643,2.599-4.922,4.545-6.839c1.945-1.916,4.273-3.407,6.984-4.473
			c2.71-1.064,5.701-1.597,8.973-1.597c1.587,0,3.083,0.141,4.487,0.421c1.403,0.281,2.715,0.668,3.935,1.162
			s2.342,1.084,3.369,1.771c1.026,0.688,1.936,1.447,2.729,2.279l-3.311,4.443c-0.213,0.271-0.464,0.518-0.755,0.74
			s-0.697,0.334-1.22,0.334c-0.348,0-0.678-0.077-0.987-0.232s-0.639-0.344-0.987-0.566c-0.348-0.223-0.731-0.465-1.147-0.726
			c-0.417-0.262-0.91-0.504-1.481-0.727c-0.571-0.222-1.239-0.411-2.004-0.566c-0.765-0.154-1.66-0.232-2.686-0.232
			c-1.781,0-3.407,0.315-4.878,0.944s-2.734,1.529-3.79,2.7c-1.055,1.172-1.878,2.59-2.468,4.255
			c-0.591,1.665-0.886,3.533-0.886,5.604c0,2.168,0.295,4.094,0.886,5.778c0.59,1.685,1.394,3.103,2.41,4.254
			c1.017,1.152,2.202,2.028,3.557,2.628c1.355,0.601,2.807,0.9,4.356,0.9c0.89,0,1.704-0.043,2.439-0.131
			c0.735-0.087,1.418-0.236,2.047-0.449c0.628-0.213,1.229-0.489,1.8-0.828c0.571-0.339,1.147-0.76,1.728-1.263
			c0.232-0.193,0.484-0.354,0.755-0.479C52.681,104.486,52.962,104.424,53.252,104.424z"/>
		<path fill="#FFFFFF" d="M91.7,104.424c0.232,0,0.464,0.043,0.696,0.13c0.232,0.088,0.455,0.237,0.668,0.45l3.892,4.095
			c-1.704,2.227-3.838,3.906-6.403,5.038c-2.565,1.133-5.6,1.699-9.104,1.699c-3.214,0-6.094-0.547-8.639-1.641
			c-2.547-1.094-4.705-2.604-6.477-4.53c-1.771-1.926-3.131-4.211-4.08-6.854c-0.949-2.643-1.423-5.512-1.423-8.609
			c0-3.155,0.542-6.055,1.626-8.697c1.084-2.643,2.599-4.922,4.544-6.839c1.945-1.916,4.273-3.407,6.984-4.473
			c2.71-1.064,5.701-1.597,8.973-1.597c1.587,0,3.083,0.141,4.486,0.421c1.403,0.281,2.716,0.668,3.936,1.162
			c1.219,0.494,2.342,1.084,3.368,1.771c1.025,0.688,1.936,1.447,2.729,2.279l-3.311,4.443c-0.213,0.271-0.465,0.518-0.755,0.74
			s-0.697,0.334-1.22,0.334c-0.349,0-0.678-0.077-0.987-0.232s-0.639-0.344-0.987-0.566s-0.73-0.465-1.146-0.726
			c-0.417-0.262-0.91-0.504-1.481-0.727c-0.571-0.222-1.239-0.411-2.004-0.566c-0.765-0.154-1.66-0.232-2.686-0.232
			c-1.781,0-3.408,0.315-4.879,0.944c-1.472,0.629-2.734,1.529-3.789,2.7c-1.056,1.172-1.878,2.59-2.469,4.255
			s-0.886,3.533-0.886,5.604c0,2.168,0.295,4.094,0.886,5.778s1.394,3.103,2.41,4.254c1.017,1.152,2.202,2.028,3.558,2.628
			c1.354,0.601,2.807,0.9,4.355,0.9c0.891,0,1.703-0.043,2.439-0.131c0.735-0.087,1.418-0.236,2.047-0.449s1.229-0.489,1.801-0.828
			c0.57-0.339,1.146-0.76,1.728-1.263c0.232-0.193,0.483-0.354,0.755-0.479S91.409,104.424,91.7,104.424z"/>
	</g>
	<g>
		<defs>
			<rect id="SVGID_1_" x="-21" y="-13.702" width="179" height="176.702"/>
		</defs>
		<clipPath id="SVGID_2_">
			<use xlink:href="#SVGID_1_"  overflow="visible"/>
		</clipPath>
		<path clip-path="url(#SVGID_2_)" fill="#FFFFFF" d="M124.713,93.287c0,4.937-4.001,8.938-8.937,8.938s-8.936-4.001-8.936-8.938
			c0-4.936,4-8.937,8.936-8.937S124.713,88.352,124.713,93.287"/>
		<path clip-path="url(#SVGID_2_)" fill="#3BAD74" d="M121.649,46.5l-5.06-18.725c-0.578-2.137-3.003-3.463-5.389-2.946L11.281,46.5
			H121.649z"/>
		<path clip-path="url(#SVGID_2_)" fill="#3BAD74" d="M96.523,23.949l-7.045-13.645c-0.806-1.557-2.903-2.176-4.663-1.377
			L11.119,42.404L96.523,23.949z"/>
		<path clip-path="url(#SVGID_2_)" fill="#3BAD74" d="M69.532,11.297l-7.203-8.684c-0.822-0.99-2.425-1.105-3.563-0.254
			L11.144,37.979L69.532,11.297z"/>
	</g>
</g>
<g>
	<path fill="#3BAD74" d="M198.04,106.594c0.527,0,0.983,0.204,1.368,0.612l3.815,4.14c-2.112,2.616-4.71,4.621-7.794,6.013
		s-6.786,2.088-11.105,2.088c-3.864,0-7.339-0.66-10.422-1.98c-3.085-1.319-5.719-3.155-7.902-5.508
		c-2.185-2.352-3.858-5.16-5.022-8.424s-1.745-6.828-1.745-10.692c0-3.911,0.647-7.493,1.943-10.745s3.12-6.055,5.473-8.406
		c2.352-2.352,5.166-4.182,8.441-5.49c3.276-1.309,6.895-1.962,10.854-1.962c3.863,0,7.241,0.618,10.134,1.854
		c2.892,1.236,5.369,2.873,7.434,4.914l-3.239,4.5c-0.192,0.287-0.438,0.539-0.738,0.756c-0.301,0.215-0.715,0.323-1.242,0.323
		c-0.553,0-1.116-0.216-1.692-0.647c-0.575-0.432-1.308-0.9-2.195-1.404c-0.889-0.504-2.011-0.973-3.366-1.404
		c-1.356-0.432-3.078-0.648-5.166-0.648c-2.448,0-4.698,0.428-6.75,1.279s-3.816,2.069-5.292,3.653
		c-1.477,1.584-2.628,3.511-3.456,5.778s-1.242,4.818-1.242,7.649c0,2.929,0.414,5.532,1.242,7.812s1.949,4.2,3.366,5.76
		c1.416,1.561,3.083,2.754,5.004,3.582c1.92,0.828,3.983,1.242,6.191,1.242c1.32,0,2.515-0.072,3.582-0.216
		c1.068-0.145,2.053-0.372,2.952-0.685c0.9-0.312,1.752-0.714,2.557-1.206c0.804-0.491,1.602-1.098,2.394-1.817
		c0.239-0.217,0.492-0.391,0.756-0.522S197.728,106.594,198.04,106.594z"/>
	<path fill="#3BAD74" d="M217.739,110.878h20.844v7.992h-30.528V66.813h9.685V110.878z"/>
	<path fill="#3BAD74" d="M291.509,118.87h-7.487c-0.841,0-1.53-0.21-2.07-0.63s-0.931-0.941-1.17-1.566l-3.888-10.62h-21.564
		l-3.888,10.62c-0.192,0.553-0.57,1.057-1.135,1.513c-0.563,0.456-1.254,0.684-2.069,0.684h-7.524l20.448-52.057h9.9L291.509,118.87
		z M257.813,99.214h16.596l-6.336-17.316c-0.288-0.768-0.606-1.674-0.954-2.717c-0.349-1.045-0.69-2.179-1.026-3.402
		c-0.336,1.224-0.666,2.363-0.989,3.42c-0.324,1.057-0.643,1.98-0.954,2.771L257.813,99.214z"/>
	<path fill="#3BAD74" d="M324.341,76.282c-0.265,0.528-0.57,0.9-0.918,1.115c-0.349,0.217-0.763,0.324-1.242,0.324
		c-0.48,0-1.021-0.186-1.62-0.558c-0.601-0.372-1.309-0.786-2.124-1.242c-0.816-0.456-1.771-0.869-2.862-1.241
		c-1.092-0.373-2.382-0.559-3.87-0.559c-1.344,0-2.514,0.162-3.51,0.486s-1.836,0.773-2.52,1.35c-0.685,0.576-1.194,1.266-1.53,2.07
		s-0.504,1.686-0.504,2.646c0,1.223,0.342,2.244,1.026,3.059c0.684,0.816,1.589,1.513,2.718,2.089
		c1.128,0.575,2.412,1.093,3.852,1.548c1.44,0.456,2.91,0.942,4.41,1.458c1.5,0.517,2.97,1.116,4.41,1.8
		c1.439,0.685,2.724,1.548,3.852,2.592s2.034,2.322,2.719,3.834c0.684,1.513,1.025,3.349,1.025,5.509
		c0,2.352-0.402,4.554-1.206,6.605s-1.979,3.841-3.527,5.364c-1.549,1.524-3.438,2.724-5.67,3.6
		c-2.232,0.876-4.788,1.314-7.668,1.314c-1.656,0-3.289-0.162-4.896-0.486c-1.608-0.324-3.15-0.786-4.626-1.386
		s-2.856-1.319-4.14-2.16c-1.284-0.84-2.431-1.775-3.438-2.808l2.808-4.645c0.265-0.336,0.582-0.617,0.954-0.846
		c0.372-0.228,0.786-0.342,1.242-0.342c0.6,0,1.248,0.246,1.944,0.737c0.695,0.492,1.518,1.039,2.466,1.639s2.063,1.146,3.348,1.638
		c1.284,0.492,2.826,0.738,4.626,0.738c2.76,0,4.896-0.654,6.408-1.962c1.512-1.309,2.269-3.187,2.269-5.635
		c0-1.367-0.343-2.483-1.026-3.348s-1.59-1.59-2.718-2.178c-1.129-0.588-2.412-1.086-3.853-1.494
		c-1.439-0.408-2.904-0.852-4.392-1.332c-1.488-0.479-2.952-1.056-4.392-1.728c-1.44-0.672-2.725-1.549-3.853-2.629
		c-1.128-1.079-2.034-2.43-2.718-4.05c-0.685-1.62-1.026-3.618-1.026-5.993c0-1.896,0.378-3.744,1.134-5.545
		c0.757-1.8,1.86-3.396,3.312-4.787c1.452-1.393,3.233-2.508,5.346-3.349c2.112-0.84,4.523-1.26,7.236-1.26
		c3.071,0,5.904,0.479,8.496,1.44c2.592,0.959,4.8,2.303,6.624,4.031L324.341,76.282z"/>
	<path fill="#3BAD74" d="M361.327,76.282c-0.265,0.528-0.57,0.9-0.918,1.115c-0.349,0.217-0.763,0.324-1.242,0.324
		c-0.48,0-1.021-0.186-1.62-0.558c-0.601-0.372-1.309-0.786-2.124-1.242c-0.816-0.456-1.771-0.869-2.862-1.241
		c-1.092-0.373-2.382-0.559-3.87-0.559c-1.344,0-2.514,0.162-3.51,0.486s-1.836,0.773-2.52,1.35c-0.685,0.576-1.194,1.266-1.53,2.07
		s-0.504,1.686-0.504,2.646c0,1.223,0.342,2.244,1.026,3.059c0.684,0.816,1.589,1.513,2.718,2.089
		c1.128,0.575,2.412,1.093,3.852,1.548c1.44,0.456,2.91,0.942,4.41,1.458c1.5,0.517,2.97,1.116,4.41,1.8
		c1.439,0.685,2.724,1.548,3.852,2.592s2.034,2.322,2.719,3.834c0.684,1.513,1.025,3.349,1.025,5.509
		c0,2.352-0.402,4.554-1.206,6.605s-1.979,3.841-3.527,5.364c-1.549,1.524-3.438,2.724-5.67,3.6
		c-2.232,0.876-4.788,1.314-7.668,1.314c-1.656,0-3.289-0.162-4.896-0.486c-1.608-0.324-3.15-0.786-4.626-1.386
		s-2.856-1.319-4.14-2.16c-1.284-0.84-2.431-1.775-3.438-2.808l2.808-4.645c0.265-0.336,0.582-0.617,0.954-0.846
		c0.372-0.228,0.786-0.342,1.242-0.342c0.6,0,1.248,0.246,1.944,0.737c0.695,0.492,1.518,1.039,2.466,1.639s2.063,1.146,3.348,1.638
		c1.284,0.492,2.826,0.738,4.626,0.738c2.76,0,4.896-0.654,6.408-1.962c1.512-1.309,2.269-3.187,2.269-5.635
		c0-1.367-0.343-2.483-1.026-3.348s-1.59-1.59-2.718-2.178c-1.129-0.588-2.412-1.086-3.853-1.494
		c-1.439-0.408-2.904-0.852-4.392-1.332c-1.488-0.479-2.952-1.056-4.392-1.728c-1.44-0.672-2.725-1.549-3.853-2.629
		c-1.128-1.079-2.034-2.43-2.718-4.05c-0.685-1.62-1.026-3.618-1.026-5.993c0-1.896,0.378-3.744,1.134-5.545
		c0.757-1.8,1.86-3.396,3.312-4.787c1.452-1.393,3.233-2.508,5.346-3.349c2.112-0.84,4.523-1.26,7.236-1.26
		c3.071,0,5.904,0.479,8.496,1.44c2.592,0.959,4.8,2.303,6.624,4.031L361.327,76.282z"/>
	<path fill="#3BAD74" d="M381.293,118.87h-9.72V66.813h9.72V118.87z"/>
	<path fill="#3BAD74" d="M427.191,106.594c0.527,0,0.983,0.204,1.368,0.612l3.815,4.14c-2.112,2.616-4.71,4.621-7.794,6.013
		s-6.786,2.088-11.105,2.088c-3.864,0-7.339-0.66-10.422-1.98c-3.085-1.319-5.719-3.155-7.902-5.508
		c-2.185-2.352-3.858-5.16-5.022-8.424s-1.745-6.828-1.745-10.692c0-3.911,0.647-7.493,1.943-10.745s3.12-6.055,5.473-8.406
		c2.352-2.352,5.166-4.182,8.441-5.49c3.276-1.309,6.895-1.962,10.854-1.962c3.863,0,7.241,0.618,10.134,1.854
		c2.892,1.236,5.369,2.873,7.434,4.914l-3.239,4.5c-0.192,0.287-0.438,0.539-0.738,0.756c-0.301,0.215-0.715,0.323-1.242,0.323
		c-0.553,0-1.116-0.216-1.692-0.647c-0.575-0.432-1.308-0.9-2.195-1.404c-0.889-0.504-2.011-0.973-3.366-1.404
		c-1.356-0.432-3.078-0.648-5.166-0.648c-2.448,0-4.698,0.428-6.75,1.279s-3.816,2.069-5.292,3.653
		c-1.477,1.584-2.628,3.511-3.456,5.778s-1.242,4.818-1.242,7.649c0,2.929,0.414,5.532,1.242,7.812s1.949,4.2,3.366,5.76
		c1.416,1.561,3.083,2.754,5.004,3.582c1.92,0.828,3.983,1.242,6.191,1.242c1.32,0,2.515-0.072,3.582-0.216
		c1.068-0.145,2.053-0.372,2.952-0.685c0.9-0.312,1.752-0.714,2.557-1.206c0.804-0.491,1.602-1.098,2.394-1.817
		c0.239-0.217,0.492-0.391,0.756-0.522S426.879,106.594,427.191,106.594z"/>
	<path fill="#3BAD74" d="M489.362,106.594c0.527,0,0.983,0.204,1.368,0.612l3.815,4.14c-2.112,2.616-4.71,4.621-7.794,6.013
		s-6.786,2.088-11.105,2.088c-3.864,0-7.339-0.66-10.422-1.98c-3.085-1.319-5.719-3.155-7.902-5.508
		c-2.185-2.352-3.858-5.16-5.022-8.424s-1.745-6.828-1.745-10.692c0-3.911,0.647-7.493,1.943-10.745s3.12-6.055,5.473-8.406
		c2.352-2.352,5.166-4.182,8.441-5.49c3.276-1.309,6.895-1.962,10.854-1.962c3.863,0,7.241,0.618,10.134,1.854
		c2.892,1.236,5.369,2.873,7.434,4.914l-3.239,4.5c-0.192,0.287-0.438,0.539-0.738,0.756c-0.301,0.215-0.715,0.323-1.242,0.323
		c-0.553,0-1.116-0.216-1.692-0.647c-0.575-0.432-1.308-0.9-2.195-1.404c-0.889-0.504-2.011-0.973-3.366-1.404
		c-1.356-0.432-3.078-0.648-5.166-0.648c-2.448,0-4.698,0.428-6.75,1.279s-3.816,2.069-5.292,3.653
		c-1.477,1.584-2.628,3.511-3.456,5.778s-1.242,4.818-1.242,7.649c0,2.929,0.414,5.532,1.242,7.812s1.949,4.2,3.366,5.76
		c1.416,1.561,3.083,2.754,5.004,3.582c1.92,0.828,3.983,1.242,6.191,1.242c1.32,0,2.515-0.072,3.582-0.216
		c1.068-0.145,2.053-0.372,2.952-0.685c0.9-0.312,1.752-0.714,2.557-1.206c0.804-0.491,1.602-1.098,2.394-1.817
		c0.239-0.217,0.492-0.391,0.756-0.522S489.05,106.594,489.362,106.594z"/>
	<path fill="#3BAD74" d="M548.273,92.842c0,3.816-0.637,7.351-1.908,10.603c-1.272,3.252-3.061,6.065-5.364,8.441
		s-5.076,4.23-8.316,5.562c-3.239,1.332-6.828,1.998-10.764,1.998c-3.937,0-7.53-0.666-10.782-1.998s-6.036-3.187-8.352-5.562
		c-2.316-2.376-4.11-5.189-5.382-8.441c-1.272-3.252-1.908-6.786-1.908-10.603c0-3.815,0.636-7.349,1.908-10.602
		c1.271-3.252,3.065-6.065,5.382-8.442c2.315-2.376,5.1-4.229,8.352-5.562s6.846-1.998,10.782-1.998
		c3.936,0,7.524,0.672,10.764,2.016c3.24,1.345,6.013,3.198,8.316,5.562c2.304,2.365,4.092,5.173,5.364,8.425
		C547.637,85.493,548.273,89.026,548.273,92.842z M538.337,92.842c0-2.855-0.378-5.417-1.134-7.686s-1.843-4.194-3.258-5.778
		c-1.417-1.584-3.139-2.795-5.166-3.636c-2.028-0.84-4.314-1.261-6.858-1.261s-4.836,0.421-6.876,1.261
		c-2.04,0.841-3.774,2.052-5.202,3.636s-2.526,3.51-3.294,5.778c-0.769,2.269-1.152,4.83-1.152,7.686
		c0,2.856,0.384,5.418,1.152,7.687c0.768,2.268,1.866,4.188,3.294,5.76c1.428,1.572,3.162,2.778,5.202,3.618s4.332,1.26,6.876,1.26
		s4.83-0.42,6.858-1.26c2.027-0.84,3.749-2.046,5.166-3.618c1.415-1.571,2.502-3.492,3.258-5.76
		C537.959,98.26,538.337,95.698,538.337,92.842z"/>
	<path fill="#3BAD74" d="M581.901,99.664c0.348,0.828,0.689,1.662,1.025,2.502c0.336-0.864,0.685-1.716,1.044-2.556
		c0.36-0.84,0.744-1.644,1.152-2.412l15.408-28.836c0.191-0.36,0.39-0.648,0.594-0.864s0.432-0.372,0.684-0.468
		s0.534-0.156,0.847-0.18c0.312-0.023,0.684-0.037,1.116-0.037h7.308v52.057h-8.532V85.246c0-0.624,0.019-1.308,0.054-2.052
		c0.036-0.744,0.091-1.5,0.162-2.268l-15.731,29.52c-0.36,0.672-0.828,1.194-1.404,1.565c-0.576,0.373-1.248,0.559-2.016,0.559
		h-1.332c-0.769,0-1.44-0.186-2.017-0.559c-0.576-0.371-1.044-0.894-1.403-1.565l-15.948-29.628
		c0.096,0.792,0.162,1.565,0.198,2.321c0.035,0.756,0.054,1.459,0.054,2.106v33.624h-8.532V66.813h7.309
		c0.432,0,0.804,0.014,1.115,0.037s0.595,0.084,0.847,0.18s0.485,0.252,0.701,0.468c0.217,0.216,0.42,0.504,0.612,0.864
		l15.552,28.908C581.175,98.038,581.553,98.836,581.901,99.664z"/>
	<path fill="#3BAD74" d="M647.607,99.664c0.348,0.828,0.689,1.662,1.025,2.502c0.336-0.864,0.685-1.716,1.044-2.556
		c0.36-0.84,0.744-1.644,1.152-2.412l15.408-28.836c0.191-0.36,0.39-0.648,0.594-0.864s0.432-0.372,0.684-0.468
		s0.534-0.156,0.847-0.18c0.312-0.023,0.684-0.037,1.116-0.037h7.308v52.057h-8.532V85.246c0-0.624,0.019-1.308,0.054-2.052
		c0.036-0.744,0.091-1.5,0.162-2.268l-15.731,29.52c-0.36,0.672-0.828,1.194-1.404,1.565c-0.576,0.373-1.248,0.559-2.016,0.559
		h-1.332c-0.769,0-1.44-0.186-2.017-0.559c-0.576-0.371-1.044-0.894-1.403-1.565l-15.948-29.628
		c0.096,0.792,0.162,1.565,0.198,2.321c0.035,0.756,0.054,1.459,0.054,2.106v33.624h-8.532V66.813h7.309
		c0.432,0,0.804,0.014,1.115,0.037s0.595,0.084,0.847,0.18s0.485,0.252,0.701,0.468c0.217,0.216,0.42,0.504,0.612,0.864
		l15.552,28.908C646.881,98.038,647.259,98.836,647.607,99.664z"/>
	<path fill="#3BAD74" d="M718.875,66.813v7.705h-23.076v14.436h18.181v7.452h-18.181v14.724h23.076v7.74h-32.832V66.813H718.875z"/>
	<path fill="#3BAD74" d="M735.11,98.53v20.34h-9.684V66.813h15.876c3.552,0,6.594,0.367,9.126,1.099
		c2.532,0.732,4.608,1.759,6.228,3.078c1.62,1.32,2.809,2.897,3.564,4.733s1.134,3.859,1.134,6.066c0,1.752-0.258,3.408-0.773,4.969
		c-0.517,1.56-1.261,2.976-2.232,4.247c-0.972,1.272-2.172,2.389-3.6,3.349c-1.429,0.96-3.055,1.728-4.878,2.304
		c1.224,0.696,2.279,1.692,3.168,2.988l13.031,19.224h-8.712c-0.84,0-1.554-0.168-2.142-0.504c-0.589-0.336-1.086-0.815-1.494-1.44
		l-10.944-16.668c-0.408-0.623-0.858-1.067-1.35-1.332c-0.492-0.264-1.219-0.396-2.178-0.396H735.11z M735.11,91.582h6.048
		c1.824,0,3.414-0.228,4.771-0.684c1.355-0.456,2.472-1.086,3.348-1.89c0.876-0.805,1.53-1.758,1.962-2.863
		c0.433-1.104,0.648-2.315,0.648-3.635c0-2.641-0.87-4.668-2.61-6.084s-4.397-2.125-7.974-2.125h-6.192V91.582z"/>
	<path fill="#3BAD74" d="M805.066,106.594c0.527,0,0.983,0.204,1.368,0.612l3.815,4.14c-2.112,2.616-4.71,4.621-7.794,6.013
		s-6.786,2.088-11.105,2.088c-3.864,0-7.339-0.66-10.422-1.98c-3.085-1.319-5.719-3.155-7.902-5.508
		c-2.185-2.352-3.858-5.16-5.022-8.424s-1.745-6.828-1.745-10.692c0-3.911,0.647-7.493,1.943-10.745s3.12-6.055,5.473-8.406
		c2.352-2.352,5.166-4.182,8.441-5.49c3.276-1.309,6.895-1.962,10.854-1.962c3.863,0,7.241,0.618,10.134,1.854
		c2.892,1.236,5.369,2.873,7.434,4.914l-3.239,4.5c-0.192,0.287-0.438,0.539-0.738,0.756c-0.301,0.215-0.715,0.323-1.242,0.323
		c-0.553,0-1.116-0.216-1.692-0.647c-0.575-0.432-1.308-0.9-2.195-1.404c-0.889-0.504-2.011-0.973-3.366-1.404
		c-1.356-0.432-3.078-0.648-5.166-0.648c-2.448,0-4.698,0.428-6.75,1.279s-3.816,2.069-5.292,3.653
		c-1.477,1.584-2.628,3.511-3.456,5.778s-1.242,4.818-1.242,7.649c0,2.929,0.414,5.532,1.242,7.812s1.949,4.2,3.366,5.76
		c1.416,1.561,3.083,2.754,5.004,3.582c1.92,0.828,3.983,1.242,6.191,1.242c1.32,0,2.515-0.072,3.582-0.216
		c1.068-0.145,2.053-0.372,2.952-0.685c0.9-0.312,1.752-0.714,2.557-1.206c0.804-0.491,1.602-1.098,2.394-1.817
		c0.239-0.217,0.492-0.391,0.756-0.522S804.754,106.594,805.066,106.594z"/>
	<path fill="#3BAD74" d="M847.912,66.813v7.705h-23.076v14.436h18.181v7.452h-18.181v14.724h23.076v7.74H815.08V66.813H847.912z"/>
</g>
</svg>
