<svg xmlns="http://www.w3.org/2000/svg" xmlns:xlink="http://www.w3.org/1999/xlink" width="136.8" height="136.8"><path fill="#338084" d="M129.29 134.72H8.613a6.02 6.02 0 0 1-6-6V56.465a6.02 6.02 0 0 1 6-6H129.29a6.02 6.02 0 0 1 6 6v72.256a6.02 6.02 0 0 1-6 6"/><path d="M51.152 104.175c.232 0 .465.043.697.13s.455.237.667.45l3.892 4.095c-1.704 2.227-3.838 3.906-6.403 5.038s-5.6 1.7-9.104 1.7c-3.214 0-6.094-.547-8.64-1.64s-4.704-2.604-6.476-4.53-3.132-4.2-4.08-6.854-1.423-5.512-1.423-8.6c0-3.155.542-6.055 1.626-8.697s2.6-4.922 4.545-6.84 4.273-3.407 6.984-4.473 5.7-1.597 8.973-1.597c1.587 0 3.083.14 4.487.42s2.715.668 3.935 1.162a18.57 18.57 0 0 1 3.369 1.771c1.026.688 1.936 1.447 2.73 2.28l-3.3 4.443c-.213.27-.464.518-.755.74s-.697.334-1.22.334c-.348 0-.678-.077-.987-.232a11.13 11.13 0 0 1-.987-.566l-1.147-.726a8.47 8.47 0 0 0-1.48-.727c-.58-.223-1.24-.4-2.004-.566s-1.66-.232-2.686-.232c-1.78 0-3.407.315-4.878.944s-2.734 1.53-3.8 2.7-1.878 2.6-2.468 4.255-.886 3.533-.886 5.604c0 2.168.295 4.094.886 5.778s1.394 3.103 2.4 4.254a10.23 10.23 0 0 0 3.557 2.628 10.62 10.62 0 0 0 4.356.9 20.65 20.65 0 0 0 2.439-.131c.735-.087 1.418-.236 2.047-.45a9.49 9.49 0 0 0 1.8-.828c.57-.34 1.147-.76 1.728-1.263a3.46 3.46 0 0 1 .755-.48 1.98 1.98 0 0 1 .843-.186zm38.448 0a1.97 1.97 0 0 1 .696.13c.232.088.455.237.668.45l3.892 4.095c-1.704 2.227-3.838 3.906-6.403 5.038s-5.6 1.7-9.104 1.7c-3.214 0-6.094-.547-8.64-1.64s-4.705-2.604-6.477-4.53-3.13-4.2-4.08-6.854-1.423-5.512-1.423-8.6c0-3.155.542-6.055 1.626-8.697s2.6-4.922 4.544-6.84 4.273-3.407 6.984-4.473 5.7-1.597 8.973-1.597c1.587 0 3.083.14 4.486.42a21.96 21.96 0 0 1 3.936 1.162c1.22.494 2.342 1.084 3.368 1.77s1.936 1.447 2.73 2.28l-3.3 4.443a4.24 4.24 0 0 1-.755.74c-.3.222-.697.334-1.22.334a2.17 2.17 0 0 1-.987-.232 11.13 11.13 0 0 1-.987-.566l-1.146-.726a8.47 8.47 0 0 0-1.48-.727c-.58-.223-1.24-.4-2.004-.566s-1.66-.232-2.686-.232c-1.78 0-3.408.315-4.88.944a10.71 10.71 0 0 0-3.79 2.7c-1.056 1.17-1.878 2.6-2.47 4.255s-.886 3.533-.886 5.604c0 2.168.295 4.094.886 5.778s1.394 3.103 2.4 4.254S74.263 106 75.62 106.6s2.807.9 4.355.9a20.65 20.65 0 0 0 2.439-.131c.735-.087 1.418-.236 2.047-.45s1.23-.5 1.8-.828 1.146-.76 1.728-1.263c.232-.193.483-.354.755-.48a2 2 0 0 1 .845-.186z" fill="#fff"/><defs><path id="A" d="M-23.1-13.95h179V162.75h-179z"/></defs><clipPath id="B"><use xlink:href="#A"/></clipPath><path clip-path="url(#B)" fill="#fff" d="M122.613 93.04a8.94 8.94 0 0 1-8.937 8.938 8.94 8.94 0 0 1-8.936-8.938 8.94 8.94 0 0 1 8.936-8.937 8.94 8.94 0 0 1 8.937 8.937"/><path clip-path="url(#B)" d="M119.55 46.25l-5.06-18.725c-.578-2.137-3.003-3.463-5.4-2.946L9.18 46.25h110.37zM94.423 23.7l-7.045-13.645C86.573 8.5 84.475 7.88 82.715 8.68L9.02 42.156 94.423 23.7zm-26.99-12.652L60.23 2.364c-.822-1-2.425-1.105-3.563-.254L9.044 37.73l58.388-26.682z" fill="#338084"/></svg>